<?xml version="1.0" encoding="UTF-8" standalone="no"?>
<!DOCTYPE svg PUBLIC "-//W3C//DTD SVG 1.1//EN"
 "http://www.w3.org/Graphics/SVG/1.1/DTD/svg11.dtd">
<!-- Generated by graphviz version 2.44.1 (20200629.0846)
 -->
<!-- Title: dependencies Pages: 1 -->
<svg width="1364pt" height="284pt"
 viewBox="0.00 0.00 1364.00 284.00" xmlns="http://www.w3.org/2000/svg" xmlns:xlink="http://www.w3.org/1999/xlink">
<g id="graph0" class="graph" transform="scale(1 1) rotate(0) translate(4 280)">
<title>dependencies</title>
<polygon fill="white" stroke="transparent" points="-4,4 -4,-280 1360,-280 1360,4 -4,4"/>
<text text-anchor="start" x="657.01" y="-42.4" font-family="sans-serif" font-weight="bold" font-size="14.00">Legend</text>
<polygon fill="#ffffb3" stroke="transparent" points="444,-10 444,-30 464,-30 464,-10 444,-10"/>
<text text-anchor="start" x="467.63" y="-15.4" font-family="sans-serif" font-size="14.00"> &#160;Declarations</text>
<polygon fill="#8dd3c7" stroke="transparent" points="557,-10 557,-30 577,-30 577,-10 557,-10"/>
<text text-anchor="start" x="580.73" y="-15.4" font-family="sans-serif" font-size="14.00"> &#160;Module</text>
<polygon fill="#80b1d3" stroke="transparent" points="643,-10 643,-30 663,-30 663,-10 643,-10"/>
<text text-anchor="start" x="666.78" y="-15.4" font-family="sans-serif" font-size="14.00"> &#160;Bootstrap</text>
<polygon fill="#fdb462" stroke="transparent" points="740,-10 740,-30 760,-30 760,-10 740,-10"/>
<text text-anchor="start" x="763.67" y="-15.4" font-family="sans-serif" font-size="14.00"> &#160;Providers</text>
<polygon fill="#fb8072" stroke="transparent" points="836,-10 836,-30 856,-30 856,-10 836,-10"/>
<text text-anchor="start" x="859.73" y="-15.4" font-family="sans-serif" font-size="14.00"> &#160;Exports</text>
<g id="clust1" class="cluster">
<title>cluster_AppModule</title>
<polygon fill="none" stroke="black" stroke-dasharray="1,5" points="8,-70 8,-268 1348,-268 1348,-70 8,-70"/>
</g>
<g id="clust2" class="cluster">
<title>cluster_AppModule_declarations</title>
<polygon fill="none" stroke="black" points="356,-78 356,-130 1340,-130 1340,-78 356,-78"/>
</g>
<g id="clust10" class="cluster">
<title>cluster_AppModule_imports</title>
<polygon fill="none" stroke="black" points="204,-78 204,-130 348,-130 348,-78 204,-78"/>
</g>
<g id="clust12" class="cluster">
<title>cluster_AppModule_bootstrap</title>
<polygon fill="none" stroke="black" points="657,-208 657,-260 781,-260 781,-208 657,-208"/>
</g>
<g id="clust13" class="cluster">
<title>cluster_AppModule_providers</title>
<polygon fill="none" stroke="black" points="16,-78 16,-130 196,-130 196,-78 16,-78"/>
</g>
<!-- AppComponent -->
<g id="node1" class="node">
<title>AppComponent</title>
<polygon fill="#ffffb3" stroke="black" points="1331.94,-122 1226.06,-122 1226.06,-86 1331.94,-86 1331.94,-122"/>
<text text-anchor="middle" x="1279" y="-99.8" font-family="Times,serif" font-size="14.00">AppComponent</text>
</g>
<!-- AppModule -->
<g id="node8" class="node">
<title>AppModule</title>
<polygon fill="#8dd3c7" stroke="black" points="760.66,-187 757.66,-191 736.66,-191 733.66,-187 677.34,-187 677.34,-151 760.66,-151 760.66,-187"/>
<text text-anchor="middle" x="719" y="-164.8" font-family="Times,serif" font-size="14.00">AppModule</text>
</g>
<!-- AppComponent&#45;&gt;AppModule -->
<g id="edge1" class="edge">
<title>AppComponent&#45;&gt;AppModule</title>
<path fill="none" stroke="black" d="M1279,-122.01C1279,-144.49 1279,-180 1279,-180 1279,-180 771.09,-180 771.09,-180"/>
<polygon fill="black" stroke="black" points="771.09,-176.5 761.09,-180 771.09,-183.5 771.09,-176.5"/>
</g>
<!-- DetailComponent -->
<g id="node2" class="node">
<title>DetailComponent</title>
<polygon fill="#ffffb3" stroke="black" points="1208.54,-122 1093.46,-122 1093.46,-86 1208.54,-86 1208.54,-122"/>
<text text-anchor="middle" x="1151" y="-99.8" font-family="Times,serif" font-size="14.00">DetailComponent</text>
</g>
<!-- DetailComponent&#45;&gt;AppModule -->
<g id="edge2" class="edge">
<title>DetailComponent&#45;&gt;AppModule</title>
<path fill="none" stroke="black" d="M1151,-122.13C1151,-142.57 1151,-173 1151,-173 1151,-173 770.81,-173 770.81,-173"/>
<polygon fill="black" stroke="black" points="770.81,-169.5 760.81,-173 770.81,-176.5 770.81,-169.5"/>
</g>
<!-- HeaderComponent -->
<g id="node3" class="node">
<title>HeaderComponent</title>
<polygon fill="#ffffb3" stroke="black" points="1074.74,-122 953.26,-122 953.26,-86 1074.74,-86 1074.74,-122"/>
<text text-anchor="middle" x="1014" y="-99.8" font-family="Times,serif" font-size="14.00">HeaderComponent</text>
</g>
<!-- HeaderComponent&#45;&gt;AppModule -->
<g id="edge3" class="edge">
<title>HeaderComponent&#45;&gt;AppModule</title>
<path fill="none" stroke="black" d="M1014,-122.27C1014,-140.56 1014,-166 1014,-166 1014,-166 770.95,-166 770.95,-166"/>
<polygon fill="black" stroke="black" points="770.95,-162.5 760.95,-166 770.95,-169.5 770.95,-162.5"/>
</g>
<!-- HomeComponent -->
<g id="node4" class="node">
<title>HomeComponent</title>
<polygon fill="#ffffb3" stroke="black" points="934.55,-122 819.45,-122 819.45,-86 934.55,-86 934.55,-122"/>
<text text-anchor="middle" x="877" y="-99.8" font-family="Times,serif" font-size="14.00">HomeComponent</text>
</g>
<!-- HomeComponent&#45;&gt;AppModule -->
<g id="edge4" class="edge">
<title>HomeComponent&#45;&gt;AppModule</title>
<path fill="none" stroke="black" d="M877,-122.01C877,-138.05 877,-159 877,-159 877,-159 770.93,-159 770.93,-159"/>
<polygon fill="black" stroke="black" points="770.93,-155.5 760.93,-159 770.93,-162.5 770.93,-155.5"/>
</g>
<!-- PageNotFoundComponent -->
<g id="node5" class="node">
<title>PageNotFoundComponent</title>
<polygon fill="#ffffb3" stroke="black" points="801.82,-122 636.18,-122 636.18,-86 801.82,-86 801.82,-122"/>
<text text-anchor="middle" x="719" y="-99.8" font-family="Times,serif" font-size="14.00">PageNotFoundComponent</text>
</g>
<!-- PageNotFoundComponent&#45;&gt;AppModule -->
<g id="edge5" class="edge">
<title>PageNotFoundComponent&#45;&gt;AppModule</title>
<path fill="none" stroke="black" d="M719,-122.11C719,-122.11 719,-140.99 719,-140.99"/>
<polygon fill="black" stroke="black" points="715.5,-140.99 719,-150.99 722.5,-140.99 715.5,-140.99"/>
</g>
<!-- ResultComponent -->
<g id="node6" class="node">
<title>ResultComponent</title>
<polygon fill="#ffffb3" stroke="black" points="618.61,-122 501.39,-122 501.39,-86 618.61,-86 618.61,-122"/>
<text text-anchor="middle" x="560" y="-99.8" font-family="Times,serif" font-size="14.00">ResultComponent</text>
</g>
<!-- ResultComponent&#45;&gt;AppModule -->
<g id="edge6" class="edge">
<title>ResultComponent&#45;&gt;AppModule</title>
<path fill="none" stroke="black" d="M560,-122.01C560,-138.05 560,-159 560,-159 560,-159 667.22,-159 667.22,-159"/>
<polygon fill="black" stroke="black" points="667.22,-162.5 677.22,-159 667.22,-155.5 667.22,-162.5"/>
</g>
<!-- SearchComponent -->
<g id="node7" class="node">
<title>SearchComponent</title>
<polygon fill="#ffffb3" stroke="black" points="483.92,-122 364.08,-122 364.08,-86 483.92,-86 483.92,-122"/>
<text text-anchor="middle" x="424" y="-99.8" font-family="Times,serif" font-size="14.00">SearchComponent</text>
</g>
<!-- SearchComponent&#45;&gt;AppModule -->
<g id="edge7" class="edge">
<title>SearchComponent&#45;&gt;AppModule</title>
<path fill="none" stroke="black" d="M424,-122.27C424,-140.56 424,-166 424,-166 424,-166 667.05,-166 667.05,-166"/>
<polygon fill="black" stroke="black" points="667.05,-169.5 677.05,-166 667.05,-162.5 667.05,-169.5"/>
</g>
<!-- AppComponent  -->
<g id="node10" class="node">
<title>AppComponent </title>
<polygon fill="#80b1d3" stroke="black" points="773.44,-252 664.56,-252 664.56,-216 773.44,-216 773.44,-252"/>
<text text-anchor="middle" x="719" y="-229.8" font-family="Times,serif" font-size="14.00">AppComponent </text>
</g>
<!-- AppModule&#45;&gt;AppComponent  -->
<g id="edge9" class="edge">
<title>AppModule&#45;&gt;AppComponent </title>
<path fill="none" stroke="black" stroke-dasharray="1,5" d="M719,-187.11C719,-187.11 719,-205.99 719,-205.99"/>
<polygon fill="black" stroke="black" points="715.5,-205.99 719,-215.99 722.5,-205.99 715.5,-205.99"/>
</g>
<!-- AppRoutingModule -->
<g id="node9" class="node">
<title>AppRoutingModule</title>
<polygon fill="#8dd3c7" stroke="black" points="340.27,-122 337.27,-126 316.27,-126 313.27,-122 211.73,-122 211.73,-86 340.27,-86 340.27,-122"/>
<text text-anchor="middle" x="276" y="-99.8" font-family="Times,serif" font-size="14.00">AppRoutingModule</text>
</g>
<!-- AppRoutingModule&#45;&gt;AppModule -->
<g id="edge8" class="edge">
<title>AppRoutingModule&#45;&gt;AppModule</title>
<path fill="none" stroke="black" d="M276,-122.13C276,-142.57 276,-173 276,-173 276,-173 667.32,-173 667.32,-173"/>
<polygon fill="black" stroke="black" points="667.32,-176.5 677.32,-173 667.32,-169.5 667.32,-176.5"/>
</g>
<!-- UserDetailService -->
<g id="node11" class="node">
<title>UserDetailService</title>
<ellipse fill="#fdb462" stroke="black" cx="106" cy="-104" rx="81.63" ry="18"/>
<text text-anchor="middle" x="106" y="-99.8" font-family="Times,serif" font-size="14.00">UserDetailService</text>
</g>
<!-- UserDetailService&#45;&gt;AppModule -->
<g id="edge10" class="edge">
<title>UserDetailService&#45;&gt;AppModule</title>
<path fill="none" stroke="black" d="M106,-122.01C106,-144.49 106,-180 106,-180 106,-180 666.87,-180 666.87,-180"/>
<polygon fill="black" stroke="black" points="666.87,-183.5 676.87,-180 666.87,-176.5 666.87,-183.5"/>
</g>
</g>
</svg>
